<mxfile host="app.diagrams.net" agent="Mozilla/5.0 (Windows NT 10.0; Win64; x64) AppleWebKit/537.36 (KHTML, like Gecko) Chrome/139.0.0.0 Safari/537.36" version="28.1.0">
  <diagram name="Page-1" id="qek0YRV2MA5GVf_mqNt1">
    <mxGraphModel dx="5052" dy="2434" grid="1" gridSize="10" guides="1" tooltips="1" connect="1" arrows="1" fold="1" page="1" pageScale="1" pageWidth="850" pageHeight="1100" math="0" shadow="0">
      <root>
        <mxCell id="0" />
        <mxCell id="1" parent="0" />
        <mxCell id="lJwn1_aUuigy-QOHoFVa-5" value="" style="edgeStyle=orthogonalEdgeStyle;rounded=0;orthogonalLoop=1;jettySize=auto;html=1;" parent="1" source="lJwn1_aUuigy-QOHoFVa-1" target="lJwn1_aUuigy-QOHoFVa-4" edge="1">
          <mxGeometry relative="1" as="geometry" />
        </mxCell>
        <mxCell id="lJwn1_aUuigy-QOHoFVa-1" value="build_model" style="whiteSpace=wrap;html=1;aspect=fixed;" parent="1" vertex="1">
          <mxGeometry x="360" y="40" width="80" height="80" as="geometry" />
        </mxCell>
        <UserObject label="detr\models\__init__.py" link="detr\models\__init__.py:" id="lJwn1_aUuigy-QOHoFVa-2">
          <mxCell style="text;whiteSpace=wrap;" parent="1" vertex="1">
            <mxGeometry x="410" y="10" width="160" height="40" as="geometry" />
          </mxCell>
        </UserObject>
        <mxCell id="lJwn1_aUuigy-QOHoFVa-8" value="" style="edgeStyle=orthogonalEdgeStyle;rounded=0;orthogonalLoop=1;jettySize=auto;html=1;" parent="1" source="lJwn1_aUuigy-QOHoFVa-4" target="lJwn1_aUuigy-QOHoFVa-7" edge="1">
          <mxGeometry relative="1" as="geometry" />
        </mxCell>
        <mxCell id="lJwn1_aUuigy-QOHoFVa-4" value="build" style="whiteSpace=wrap;html=1;aspect=fixed;" parent="1" vertex="1">
          <mxGeometry x="360" y="200" width="80" height="80" as="geometry" />
        </mxCell>
        <UserObject label="detr\models\detr.py" link="detr\models\detr.py:" id="lJwn1_aUuigy-QOHoFVa-6">
          <mxCell style="text;whiteSpace=wrap;" parent="1" vertex="1">
            <mxGeometry x="420" y="180" width="140" height="40" as="geometry" />
          </mxCell>
        </UserObject>
        <mxCell id="lJwn1_aUuigy-QOHoFVa-12" value="" style="edgeStyle=orthogonalEdgeStyle;rounded=0;orthogonalLoop=1;jettySize=auto;html=1;" parent="1" source="lJwn1_aUuigy-QOHoFVa-7" target="lJwn1_aUuigy-QOHoFVa-11" edge="1">
          <mxGeometry relative="1" as="geometry" />
        </mxCell>
        <mxCell id="47nGz680UV_TgpJSME7a-2" style="edgeStyle=orthogonalEdgeStyle;rounded=0;orthogonalLoop=1;jettySize=auto;html=1;entryX=0.5;entryY=0;entryDx=0;entryDy=0;" parent="1" source="lJwn1_aUuigy-QOHoFVa-7" target="47nGz680UV_TgpJSME7a-3" edge="1">
          <mxGeometry relative="1" as="geometry">
            <mxPoint x="200" y="560" as="targetPoint" />
          </mxGeometry>
        </mxCell>
        <mxCell id="lJwn1_aUuigy-QOHoFVa-7" value="build_backbone" style="whiteSpace=wrap;html=1;aspect=fixed;" parent="1" vertex="1">
          <mxGeometry x="150" y="370" width="100" height="100" as="geometry" />
        </mxCell>
        <UserObject label="detr\models\backbone.py" link="detr\models\backbone.py" id="lJwn1_aUuigy-QOHoFVa-9">
          <mxCell style="text;whiteSpace=wrap;" parent="1" vertex="1">
            <mxGeometry x="40" y="330" width="170" height="40" as="geometry" />
          </mxCell>
        </UserObject>
        <UserObject label="detr\models\position_encoding.py" link="detr\models\position_encoding.py" id="lJwn1_aUuigy-QOHoFVa-10">
          <mxCell style="text;whiteSpace=wrap;" parent="1" vertex="1">
            <mxGeometry x="-1190" y="510" width="210" height="40" as="geometry" />
          </mxCell>
        </UserObject>
        <mxCell id="lJwn1_aUuigy-QOHoFVa-15" value="" style="edgeStyle=orthogonalEdgeStyle;rounded=0;orthogonalLoop=1;jettySize=auto;html=1;" parent="1" source="lJwn1_aUuigy-QOHoFVa-11" target="lJwn1_aUuigy-QOHoFVa-14" edge="1">
          <mxGeometry relative="1" as="geometry" />
        </mxCell>
        <mxCell id="lJwn1_aUuigy-QOHoFVa-11" value="build_position_encoding" style="whiteSpace=wrap;html=1;aspect=fixed;" parent="1" vertex="1">
          <mxGeometry x="-1030" y="550" width="140" height="140" as="geometry" />
        </mxCell>
        <mxCell id="lJwn1_aUuigy-QOHoFVa-13" value="&lt;b&gt;&lt;font style=&quot;font-size: 47px;&quot;&gt;Trace DETR&lt;/font&gt;&lt;/b&gt;" style="text;whiteSpace=wrap;html=1;align=center;" parent="1" vertex="1">
          <mxGeometry x="140" y="-100" width="440" height="100" as="geometry" />
        </mxCell>
        <mxCell id="lJwn1_aUuigy-QOHoFVa-17" value="" style="edgeStyle=orthogonalEdgeStyle;rounded=0;orthogonalLoop=1;jettySize=auto;html=1;exitX=0;exitY=0;exitDx=0;exitDy=0;" parent="1" source="lJwn1_aUuigy-QOHoFVa-14" target="lJwn1_aUuigy-QOHoFVa-16" edge="1">
          <mxGeometry relative="1" as="geometry">
            <mxPoint x="-1140" y="810" as="sourcePoint" />
            <Array as="points">
              <mxPoint x="-1210" y="810" />
              <mxPoint x="-1210" y="810" />
            </Array>
          </mxGeometry>
        </mxCell>
        <mxCell id="lJwn1_aUuigy-QOHoFVa-14" value="Class PositionEmbeddingSine" style="whiteSpace=wrap;html=1;" parent="1" vertex="1">
          <mxGeometry x="-1135" y="810" width="350" height="60" as="geometry" />
        </mxCell>
        <mxCell id="lJwn1_aUuigy-QOHoFVa-16" value="Implement Position Encoding class" style="whiteSpace=wrap;html=1;" parent="1" vertex="1">
          <mxGeometry x="-1790" y="780" width="350" height="60" as="geometry" />
        </mxCell>
        <mxCell id="47nGz680UV_TgpJSME7a-1" value="&lt;font style=&quot;font-size: 31px;&quot;&gt;Done&lt;/font&gt;" style="text;html=1;align=center;verticalAlign=middle;resizable=0;points=[];autosize=1;strokeColor=none;fillColor=none;" parent="1" vertex="1">
          <mxGeometry x="-1670" y="730" width="100" height="50" as="geometry" />
        </mxCell>
        <mxCell id="47nGz680UV_TgpJSME7a-6" value="" style="edgeStyle=orthogonalEdgeStyle;rounded=0;orthogonalLoop=1;jettySize=auto;html=1;exitX=0.5;exitY=1;exitDx=0;exitDy=0;" parent="1" source="47nGz680UV_TgpJSME7a-3" target="47nGz680UV_TgpJSME7a-5" edge="1">
          <mxGeometry relative="1" as="geometry">
            <mxPoint x="200" y="880" as="sourcePoint" />
          </mxGeometry>
        </mxCell>
        <mxCell id="47nGz680UV_TgpJSME7a-3" value="Backbone" style="whiteSpace=wrap;html=1;aspect=fixed;" parent="1" vertex="1">
          <mxGeometry x="150" y="560" width="100" height="100" as="geometry" />
        </mxCell>
        <UserObject label="detr\models\backbone.py" link="detr\models\backbone.py" id="47nGz680UV_TgpJSME7a-4">
          <mxCell style="text;whiteSpace=wrap;" parent="1" vertex="1">
            <mxGeometry x="30" y="520" width="170" height="40" as="geometry" />
          </mxCell>
        </UserObject>
        <mxCell id="47nGz680UV_TgpJSME7a-8" value="" style="edgeStyle=orthogonalEdgeStyle;rounded=0;orthogonalLoop=1;jettySize=auto;html=1;" parent="1" source="47nGz680UV_TgpJSME7a-5" target="47nGz680UV_TgpJSME7a-7" edge="1">
          <mxGeometry relative="1" as="geometry" />
        </mxCell>
        <mxCell id="TR59xo2f4qcRhEqNfci4-1" style="edgeStyle=orthogonalEdgeStyle;rounded=0;orthogonalLoop=1;jettySize=auto;html=1;entryX=0.5;entryY=0;entryDx=0;entryDy=0;" edge="1" parent="1" source="47nGz680UV_TgpJSME7a-5" target="TR59xo2f4qcRhEqNfci4-3">
          <mxGeometry relative="1" as="geometry">
            <mxPoint x="-200" y="1040" as="targetPoint" />
          </mxGeometry>
        </mxCell>
        <mxCell id="47nGz680UV_TgpJSME7a-5" value="class Backbone" style="whiteSpace=wrap;html=1;" parent="1" vertex="1">
          <mxGeometry x="10" y="800" width="380" height="60" as="geometry" />
        </mxCell>
        <mxCell id="47nGz680UV_TgpJSME7a-7" value="class BackboneBase" style="whiteSpace=wrap;html=1;" parent="1" vertex="1">
          <mxGeometry x="490" y="1040" width="380" height="60" as="geometry" />
        </mxCell>
        <mxCell id="47nGz680UV_TgpJSME7a-10" value="Super.__init__" style="text;html=1;align=center;verticalAlign=middle;resizable=0;points=[];autosize=1;strokeColor=none;fillColor=none;" parent="1" vertex="1">
          <mxGeometry x="700" y="970" width="100" height="30" as="geometry" />
        </mxCell>
        <mxCell id="TR59xo2f4qcRhEqNfci4-3" value="class FrozenBatchNorm2d" style="whiteSpace=wrap;html=1;" vertex="1" parent="1">
          <mxGeometry x="-425" y="1040" width="380" height="60" as="geometry" />
        </mxCell>
        <mxCell id="TR59xo2f4qcRhEqNfci4-6" value="&lt;font style=&quot;font-size: 25px;&quot;&gt;1&lt;/font&gt;" style="text;html=1;align=center;verticalAlign=middle;resizable=0;points=[];autosize=1;strokeColor=none;fillColor=none;" vertex="1" parent="1">
          <mxGeometry x="-110" y="790" width="40" height="40" as="geometry" />
        </mxCell>
        <mxCell id="TR59xo2f4qcRhEqNfci4-7" value="&lt;font style=&quot;font-size: 25px;&quot;&gt;2&lt;/font&gt;" style="text;html=1;align=center;verticalAlign=middle;resizable=0;points=[];autosize=1;strokeColor=none;fillColor=none;" vertex="1" parent="1">
          <mxGeometry x="540" y="790" width="40" height="40" as="geometry" />
        </mxCell>
        <mxCell id="TR59xo2f4qcRhEqNfci4-10" value="__init__" style="text;whiteSpace=wrap;" vertex="1" parent="1">
          <mxGeometry x="-420" y="1000" width="80" height="40" as="geometry" />
        </mxCell>
      </root>
    </mxGraphModel>
  </diagram>
</mxfile>
